<svg width="255" height="63" viewBox="0 0 255 63" fill="none" xmlns="http://www.w3.org/2000/svg">
<rect y="3" width="56" height="56" fill="#E06B74"/>
<path d="M28.5169 27.1304C28.5169 27.1304 32.8954 26.1476 36.3978 31.0627C37.8844 33.149 38.937 33.1572 39.6113 33.8488C39.7968 34.0391 40.7525 35.383 40.8895 35.5044C41.9159 36.4101 41.7789 37.6506 41.8626 39.0043C41.9028 39.6606 41.7534 41.6403 41.0372 41.9824C39.7508 42.5977 39.4169 43.8103 36.3978 44.8267C36.3978 44.8267 31.1439 45.8104 28.5169 42.861C28.5169 42.861 25.8891 46.7933 18.8836 43.8439C17.4977 43.3669 16.3288 42.409 15.5888 41.1439C14.9866 39.9272 14.341 38.421 15.1753 36.7801C15.345 36.1845 15.6283 35.6273 16.0097 35.1393C17.1665 33.8406 19.7622 31.5073 20.1807 31.0372C21.9322 29.0707 25.0129 26.1476 28.5161 27.1304H28.5169Z" fill="white"/>
<path d="M12.7371 30.0929C12.597 30.0927 12.457 30.0891 12.317 30.0823C11.7474 30.0795 11.188 29.9303 10.6926 29.6491C10.5192 29.5398 10.3929 29.3696 10.3385 29.172C10.2842 28.9743 10.3057 28.7635 10.3989 28.5809L13.4492 22.6149C13.5405 22.437 13.6933 22.2982 13.8791 22.2244C14.8049 21.8501 15.6322 21.2679 16.2971 20.5229C16.962 19.7779 17.4467 18.89 17.7137 17.9278C17.751 17.7883 17.8245 17.6611 17.9267 17.5591C18.0289 17.457 18.1563 17.3838 18.2959 17.3468C18.4355 17.3097 18.5824 17.3102 18.7217 17.3481C18.8611 17.386 18.988 17.4601 19.0896 17.5628C20.1387 18.7047 20.7932 20.1535 20.9566 21.6956C21.12 23.2377 20.7835 24.7915 19.9969 26.1279C19.2214 27.3495 18.1484 28.3542 16.8785 29.0477C15.6085 29.7412 14.1832 30.1009 12.7363 30.0929H12.7371Z" fill="white"/>
<path d="M16.4469 37.9213C11.5015 42.3811 6.10973 30.522 10.7041 29.7172C10.7041 29.7172 13.9857 29.7172 13.9857 31.358C13.9857 32.9988 12.6189 35.4601 16.1746 36.6907L16.4469 37.9213Z" fill="white"/>
<path d="M9.68843 28.7425C9.68843 28.7425 2.86998 21.9807 12.5574 15.5962C12.5574 15.5962 16.2673 13.8455 18.0591 15.7218C18.0591 15.7218 12.8659 18.1723 13.1736 20.7484C13.4812 23.3245 15.6241 25.9417 13.7478 27.7343C12.4718 28.3274 11.0937 28.6697 9.68843 28.7425V28.7425Z" fill="white"/>
<path d="M36.3116 26.1279C35.525 24.7915 35.1886 23.2377 35.352 21.6956C35.5153 20.1535 36.1698 18.7047 37.219 17.5628C37.3206 17.4601 37.4475 17.386 37.5868 17.3481C37.7262 17.3102 37.8731 17.3097 38.0127 17.3468C38.1523 17.3838 38.2796 17.457 38.3818 17.5591C38.4841 17.6611 38.5575 17.7883 38.5948 17.9278C38.8619 18.89 39.3466 19.7779 40.0115 20.5229C40.6764 21.2679 41.5037 21.8501 42.4295 22.2244C42.6153 22.2982 42.768 22.437 42.8593 22.6149L45.9096 28.5809C46.0029 28.7634 46.0246 28.9742 45.9704 29.1718C45.9162 29.3695 45.7901 29.5397 45.6168 29.6491C45.1214 29.9303 44.562 30.0795 43.9923 30.0823C43.8524 30.0891 43.7124 30.0927 43.5723 30.0929C42.1253 30.1009 40.7001 29.7412 39.4301 29.0477C38.1602 28.3542 37.0871 27.3495 36.3116 26.1279V26.1279Z" fill="white"/>
<path d="M40.1339 36.6907C43.6896 35.4601 42.322 32.9988 42.322 31.358C42.322 29.7172 45.6036 29.7172 45.6036 29.7172C50.1988 30.522 44.807 42.3811 39.8607 37.9213L40.1339 36.6907Z" fill="white"/>
<path d="M42.5608 27.7343C40.6845 25.9417 42.8266 23.3245 43.135 20.7484C43.4435 18.1723 38.2487 15.7218 38.2487 15.7218C40.0413 13.8455 43.7512 15.5962 43.7512 15.5962C53.4386 21.9815 46.6202 28.7425 46.6202 28.7425C45.2146 28.6696 43.8361 28.327 42.5599 27.7334L42.5608 27.7343Z" fill="white"/>
<path d="M18.0222 34.2508L21.2349 31.0372C22.8757 29.3964 25.337 26.9352 28.6186 27.7556C28.6186 27.7556 32.7207 26.9352 36.0024 31.0372C36.9096 32.216 37.9034 33.3256 38.9755 34.3566M40.7722 41.0438C40.1963 42.1743 38.8311 43.3155 36.0024 44.1639C36.0024 44.1639 31.0799 44.9843 28.6186 42.523C28.6186 42.523 26.1574 45.8047 19.5941 43.3434C18.3373 42.9687 17.2476 42.1733 16.5077 41.0906L40.7722 41.0438Z" stroke="white" stroke-width="2" stroke-linecap="round" stroke-linejoin="round"/>
<path d="M35.1819 44.232C35.4871 44.548 35.7235 44.9238 35.8764 45.3356C36.0293 45.7475 36.0954 46.1865 36.0704 46.6251M19.594 43.3434C19.1333 43.5796 18.7406 43.9298 18.4534 44.3606C18.1662 44.7914 17.994 45.2885 17.9532 45.8047L19.594 43.3434ZM22.9446 44.232C22.6393 44.5479 22.4027 44.9237 22.2497 45.3355C22.0966 45.7474 22.0304 46.1864 22.0553 46.6251L22.9446 44.232Z" stroke="white" stroke-width="2" stroke-linecap="round" stroke-linejoin="round"/>
<path d="M25.337 26.1148C25.7901 26.1148 26.1574 25.1965 26.1574 24.0637C26.1574 22.931 25.7901 22.0127 25.337 22.0127C24.8839 22.0127 24.5166 22.931 24.5166 24.0637C24.5166 25.1965 24.8839 26.1148 25.337 26.1148Z" fill="white"/>
<path d="M31.9003 26.1148C32.3534 26.1148 32.7207 25.1965 32.7207 24.0637C32.7207 22.931 32.3534 22.0127 31.9003 22.0127C31.4472 22.0127 31.0799 22.931 31.0799 24.0637C31.0799 25.1965 31.4472 26.1148 31.9003 26.1148Z" fill="white"/>
<path d="M38.7385 43.14C38.7385 43.14 40.1488 44.1417 39.8296 45.1877L38.7385 43.14ZM16.447 37.9213C16.447 37.9213 12.3449 41.203 9.88369 35.4601C7.42245 29.7172 10.7041 29.7172 10.7041 29.7172C10.7041 29.7172 13.9858 29.7172 13.9858 31.358C13.9858 32.9989 12.619 35.4601 16.1746 36.6907L16.447 37.9213ZM9.68843 28.7425C9.68843 28.7425 2.86998 21.9807 12.5574 15.5962C12.5574 15.5962 16.2673 13.8455 18.0591 15.7218C6.55609 20.3842 21.3375 27.7137 9.68843 28.7425Z" stroke="white" stroke-width="2" stroke-linecap="round" stroke-linejoin="round"/>
<path d="M14.1793 22.9882C15.2243 22.5665 16.1582 21.9099 16.9086 21.0692C17.6589 20.2286 18.2056 19.2264 18.5062 18.1403C19.4281 19.153 20.0018 20.4341 20.143 21.7963C20.2843 23.1584 19.9858 24.53 19.2913 25.7103C18.556 26.8654 17.526 27.8034 16.3075 28.4279C15.0889 29.0523 13.7259 29.3405 12.3588 29.2627C11.9297 29.2663 11.5067 29.1604 11.1299 28.955L14.1793 22.9882ZM40.1339 36.6907C43.6896 35.4601 42.322 32.9989 42.322 31.358C42.322 29.7172 45.6036 29.7172 45.6036 29.7172C45.6036 29.7172 48.8853 29.7172 46.4241 35.4601C43.9628 41.203 39.8607 37.9213 39.8607 37.9213L40.1339 36.6907ZM38.2494 15.7218C40.0412 13.8455 43.7511 15.5962 43.7511 15.5962C53.4386 21.9815 46.6201 28.7425 46.6201 28.7425C34.9711 27.7137 49.7525 20.3842 38.2494 15.7218V15.7218Z" stroke="white" stroke-width="2" stroke-linecap="round" stroke-linejoin="round"/>
<path d="M42.1292 22.9882C41.0842 22.5665 40.1504 21.9099 39.4 21.0692C38.6497 20.2285 38.103 19.2263 37.8024 18.1403C36.8804 19.153 36.3068 20.4341 36.1655 21.7963C36.0243 23.1584 36.3227 24.53 37.0172 25.7103C37.7525 26.8653 38.7825 27.8034 40.0011 28.4279C41.2197 29.0523 42.5827 29.3405 43.9497 29.2627C44.3789 29.2663 44.8019 29.1604 45.1787 28.955" stroke="white" stroke-width="2" stroke-linecap="round" stroke-linejoin="round"/>
<path d="M108.766 39.3125H102.18C102.117 40.3438 101.945 41.2266 101.664 41.9609C101.383 42.6953 101 43.2969 100.516 43.7656C100.031 44.2344 99.4453 44.5781 98.7578 44.7969C98.0703 45.0156 97.2969 45.125 96.4375 45.125C95.7969 45.125 95.2109 45.0547 94.6797 44.9141C94.1641 44.7578 93.6953 44.5234 93.2734 44.2109C92.8828 43.9297 92.5312 43.5781 92.2188 43.1562C91.9219 42.7344 91.6641 42.25 91.4453 41.7031C91.1328 40.9062 90.8984 39.9766 90.7422 38.9141C90.6016 37.8359 90.5312 36.6172 90.5312 35.2578V30.6172C90.5312 29.6172 90.5781 28.6875 90.6719 27.8281C90.7656 26.9531 90.9141 26.1562 91.1172 25.4375C91.3828 24.5156 91.7344 23.7109 92.1719 23.0234C92.625 22.3203 93.1719 21.7812 93.8125 21.4062C94.1875 21.1875 94.5938 21.0234 95.0312 20.9141C95.4844 20.8047 95.9688 20.75 96.4844 20.75C97.4531 20.75 98.2812 20.8828 98.9688 21.1484C99.6719 21.3984 100.258 21.7734 100.727 22.2734C101.18 22.7891 101.523 23.4297 101.758 24.1953C102.008 24.9609 102.164 25.8516 102.227 26.8672H108.789C108.633 25.0859 108.258 23.4844 107.664 22.0625C107.07 20.6406 106.258 19.4375 105.227 18.4531C104.195 17.4688 102.945 16.7109 101.477 16.1797C100.023 15.6484 98.3594 15.3828 96.4844 15.3828C95.2188 15.3828 94.0312 15.5469 92.9219 15.875C91.8281 16.1875 90.8203 16.6406 89.8984 17.2344C88.8672 17.9375 87.9453 18.7969 87.1328 19.8125C86.3203 20.8281 85.6641 21.9844 85.1641 23.2812C84.7266 24.3438 84.3984 25.5 84.1797 26.75C83.9609 27.9844 83.8516 29.2891 83.8516 30.6641V35.2578C83.8516 36.7266 83.9688 38.1172 84.2031 39.4297C84.4531 40.7422 84.8047 41.9453 85.2578 43.0391C85.7266 44.1328 86.2969 45.1328 86.9688 46.0391C87.6562 46.9453 88.4375 47.7188 89.3125 48.3594C90.2656 49.0469 91.3359 49.5781 92.5234 49.9531C93.7266 50.3125 95.0312 50.4922 96.4375 50.4922C98.2188 50.4922 99.8438 50.2344 101.312 49.7188C102.781 49.1875 104.047 48.4375 105.109 47.4688C106.172 46.5 107.016 45.3281 107.641 43.9531C108.281 42.5781 108.656 41.0312 108.766 39.3125ZM132.344 24.1719C130.641 24.1719 129.07 24.5859 127.633 25.4141C126.195 26.2266 124.961 27.3516 123.93 28.7891L123.883 28.2266L123.625 24.6406H117.555V50H124.07V34.7656C124.367 34.0469 124.742 33.4219 125.195 32.8906C125.648 32.3594 126.195 31.9219 126.836 31.5781C127.367 31.2812 127.969 31.0625 128.641 30.9219C129.328 30.7656 130.094 30.6875 130.938 30.6875C131.75 30.6875 132.602 30.7422 133.492 30.8516C134.398 30.9453 135.281 31.0938 136.141 31.2969L137.102 24.8047C136.586 24.6484 135.906 24.5078 135.062 24.3828C134.234 24.2422 133.328 24.1719 132.344 24.1719ZM158.805 50H165.414V49.6016C165.086 48.9609 164.836 48.1953 164.664 47.3047C164.492 46.4141 164.406 45.2891 164.406 43.9297V33.0547C164.406 31.5859 164.133 30.2969 163.586 29.1875C163.039 28.0625 162.281 27.1328 161.312 26.3984C160.344 25.6641 159.195 25.1094 157.867 24.7344C156.555 24.3594 155.133 24.1719 153.602 24.1719C151.898 24.1719 150.383 24.3906 149.055 24.8281C147.742 25.25 146.633 25.8281 145.727 26.5625C144.805 27.2969 144.102 28.1484 143.617 29.1172C143.148 30.0859 142.914 31.1094 142.914 32.1875H149.43C149.43 31.7344 149.492 31.3203 149.617 30.9453C149.758 30.5703 149.969 30.25 150.25 29.9844C150.562 29.6875 150.969 29.4609 151.469 29.3047C151.969 29.1328 152.562 29.0469 153.25 29.0469C154.031 29.0469 154.711 29.1484 155.289 29.3516C155.883 29.5391 156.375 29.8125 156.766 30.1719C157.141 30.5156 157.422 30.9297 157.609 31.4141C157.797 31.8828 157.891 32.4141 157.891 33.0078V34.5078H154.258C152.383 34.5078 150.719 34.6797 149.266 35.0234C147.828 35.3516 146.617 35.8359 145.633 36.4766C144.539 37.1797 143.719 38.0781 143.172 39.1719C142.625 40.25 142.352 41.4922 142.352 42.8984C142.352 43.9922 142.57 45.0078 143.008 45.9453C143.445 46.8672 144.055 47.6641 144.836 48.3359C145.617 49.0078 146.547 49.5312 147.625 49.9062C148.719 50.2812 149.914 50.4688 151.211 50.4688C152.008 50.4688 152.75 50.3906 153.438 50.2344C154.125 50.0938 154.758 49.8906 155.336 49.625C155.898 49.375 156.414 49.0781 156.883 48.7344C157.352 48.3906 157.766 48.0234 158.125 47.6328C158.203 48.0859 158.297 48.5156 158.406 48.9219C158.516 49.3281 158.648 49.6875 158.805 50ZM152.594 45.4297C151.984 45.4297 151.445 45.3594 150.977 45.2188C150.523 45.0625 150.141 44.8594 149.828 44.6094C149.516 44.3438 149.273 44.0234 149.102 43.6484C148.945 43.2578 148.867 42.8359 148.867 42.3828C148.867 41.8047 148.977 41.2734 149.195 40.7891C149.414 40.2891 149.75 39.8594 150.203 39.5C150.656 39.1562 151.242 38.8906 151.961 38.7031C152.68 38.5 153.547 38.3984 154.562 38.3984H157.891V42.7578C157.703 43.0859 157.445 43.4141 157.117 43.7422C156.789 44.0547 156.398 44.3359 155.945 44.5859C155.492 44.8359 154.984 45.0391 154.422 45.1953C153.859 45.3516 153.25 45.4297 152.594 45.4297ZM194.641 37.5781V37.0859C194.641 35.5547 194.5 34.1172 194.219 32.7734C193.953 31.4297 193.539 30.2188 192.977 29.1406C192.617 28.4688 192.203 27.8516 191.734 27.2891C191.266 26.7109 190.742 26.2188 190.164 25.8125C189.445 25.2812 188.625 24.875 187.703 24.5938C186.797 24.3125 185.797 24.1719 184.703 24.1719C183.906 24.1719 183.164 24.2578 182.477 24.4297C181.805 24.5859 181.18 24.8281 180.602 25.1562C180.195 25.375 179.812 25.6406 179.453 25.9531C179.094 26.25 178.758 26.5781 178.445 26.9375V14H171.93V50H177.789L178.094 47.3047C178.359 47.6484 178.641 47.9688 178.938 48.2656C179.234 48.5469 179.555 48.8047 179.898 49.0391C180.539 49.5078 181.258 49.8594 182.055 50.0938C182.867 50.3438 183.766 50.4688 184.75 50.4688C185.828 50.4688 186.812 50.3281 187.703 50.0469C188.609 49.7812 189.422 49.3906 190.141 48.875C190.938 48.3281 191.625 47.6406 192.203 46.8125C192.797 45.9844 193.273 45.0625 193.633 44.0469C193.961 43.125 194.211 42.125 194.383 41.0469C194.555 39.9531 194.641 38.7969 194.641 37.5781ZM188.125 37.0859V37.5781C188.125 38.2344 188.094 38.8672 188.031 39.4766C187.984 40.0859 187.898 40.6484 187.773 41.1641C187.617 41.8672 187.383 42.5 187.07 43.0625C186.773 43.6094 186.383 44.0547 185.898 44.3984C185.555 44.6484 185.148 44.8438 184.68 44.9844C184.211 45.125 183.688 45.1953 183.109 45.1953C182.438 45.1953 181.836 45.1172 181.305 44.9609C180.789 44.8047 180.336 44.5781 179.945 44.2812C179.617 44.0469 179.328 43.7734 179.078 43.4609C178.844 43.1328 178.633 42.7734 178.445 42.3828V32.2812C178.586 31.9844 178.742 31.7109 178.914 31.4609C179.086 31.1953 179.273 30.9609 179.477 30.7578C179.898 30.3359 180.406 30.0156 181 29.7969C181.594 29.5781 182.281 29.4688 183.062 29.4688C183.641 29.4688 184.156 29.5391 184.609 29.6797C185.062 29.8047 185.469 30 185.828 30.2656C186.375 30.6875 186.781 31.1562 187.047 31.6719C187.328 32.1719 187.555 32.7422 187.727 33.3828C187.867 33.9297 187.969 34.5156 188.031 35.1406C188.094 35.7656 188.125 36.4141 188.125 37.0859ZM202.609 50H208.562L211.422 31.5781L211.68 29.8438L211.938 31.5781L214.914 50H220.867L225.602 15.875H219.555L217.234 35L217.07 36.4297L216.859 35.0234L214 15.875H209.289L206.594 34.8828L206.383 36.2891L206.219 34.9531L203.945 15.875H197.922L202.609 50ZM237.297 15.875H229.117V50H235.164V39.8984L234.883 24.5703L238.891 38.75H242.148L246.625 23.9375L246.344 39.8984V50H252.391V15.875H244.211L240.531 28.6953L237.297 15.875Z" fill="white"/>
</svg>
