<svg width="837" height="837" viewBox="0 0 837 837" fill="none" xmlns="http://www.w3.org/2000/svg">
<rect width="837" height="837" fill="#E06B74"/>
<path d="M426.226 360.664C426.226 360.664 491.669 345.974 544.017 419.437C566.236 450.62 581.968 450.742 592.048 461.079C594.819 463.924 609.105 484.01 611.153 485.825C626.493 499.362 624.445 517.903 625.696 538.135C626.297 547.945 624.065 577.534 613.36 582.647C594.133 591.844 589.142 609.968 544.017 625.161C544.017 625.161 465.489 639.863 426.226 595.78C426.226 595.78 386.95 654.553 282.242 610.47C261.529 603.342 244.057 589.024 232.997 570.115C223.996 551.93 214.346 529.417 226.817 504.892C229.352 495.989 233.587 487.661 239.287 480.368C256.577 460.957 295.375 426.083 301.629 419.057C327.809 389.664 373.853 345.974 426.213 360.664H426.226Z" fill="white"/>
<path d="M190.374 404.943C188.28 404.939 186.187 404.886 184.096 404.783C175.582 404.742 167.221 402.512 159.816 398.309C157.224 396.676 155.336 394.132 154.524 391.178C153.712 388.224 154.034 385.072 155.427 382.343L201.018 293.172C202.382 290.513 204.665 288.439 207.443 287.335C221.28 281.741 233.645 273.04 243.583 261.905C253.521 250.77 260.765 237.499 264.757 223.118C265.314 221.033 266.413 219.131 267.94 217.606C269.468 216.081 271.372 214.987 273.458 214.433C275.545 213.879 277.74 213.886 279.823 214.453C281.906 215.02 283.803 216.127 285.321 217.661C301.002 234.729 310.784 256.384 313.226 279.432C315.668 302.481 310.64 325.705 298.883 345.679C287.292 363.938 271.254 378.954 252.273 389.32C233.291 399.686 211.989 405.061 190.362 404.943H190.374Z" fill="white"/>
<path d="M245.823 521.949C171.906 588.607 91.3186 411.356 159.987 399.327C159.987 399.327 209.036 399.327 209.036 423.851C209.036 448.376 188.607 485.162 241.752 503.556L245.823 521.949Z" fill="white"/>
<path d="M144.807 384.759C144.807 384.759 42.8959 283.694 187.689 188.269C187.689 188.269 243.139 162.101 269.919 190.145C269.919 190.145 192.299 226.772 196.898 265.276C201.496 303.779 233.525 342.896 205.481 369.689C186.409 378.555 165.811 383.671 144.807 384.759Z" fill="white"/>
<path d="M542.729 345.679C530.972 325.705 525.944 302.481 528.386 279.432C530.828 256.384 540.61 234.729 556.291 217.661C557.809 216.127 559.706 215.02 561.789 214.453C563.872 213.886 566.067 213.879 568.154 214.433C570.24 214.987 572.144 216.081 573.671 217.606C575.199 219.131 576.298 221.033 576.855 223.118C580.846 237.499 588.091 250.77 598.029 261.905C607.967 273.04 620.332 281.741 634.169 287.335C636.946 288.439 639.229 290.513 640.594 293.172L686.185 382.343C687.579 385.071 687.903 388.221 687.093 391.175C686.283 394.129 684.398 396.674 681.808 398.309C674.403 402.512 666.043 404.742 657.528 404.783C655.437 404.886 653.344 404.939 651.25 404.943C629.623 405.061 608.321 399.686 589.339 389.32C570.358 378.954 554.32 363.938 542.729 345.679Z" fill="white"/>
<path d="M599.859 503.556C653.004 485.162 632.563 448.376 632.563 423.851C632.563 399.327 681.612 399.327 681.612 399.327C750.293 411.356 669.705 588.607 595.776 521.949L599.859 503.556Z" fill="white"/>
<path d="M636.131 369.689C608.088 342.896 640.104 303.779 644.715 265.276C649.325 226.772 571.681 190.145 571.681 190.145C598.474 162.101 653.924 188.269 653.924 188.269C798.717 283.706 696.805 384.759 696.805 384.759C675.796 383.669 655.194 378.548 636.119 369.676L636.131 369.689Z" fill="white"/>
<path d="M269.367 467.088L317.386 419.057C341.911 394.532 378.697 357.745 427.747 370.008C427.747 370.008 489.058 357.745 538.107 419.057C551.666 436.675 566.52 453.259 582.545 468.67M609.4 568.619C600.791 585.517 580.387 602.574 538.107 615.253C538.107 615.253 464.533 627.515 427.747 590.728C427.747 590.728 390.96 639.777 292.862 602.99C274.078 597.39 257.79 585.501 246.731 569.318L609.4 568.619Z" stroke="white" stroke-width="2" stroke-linecap="round" stroke-linejoin="round"/>
<path d="M525.844 616.27C530.405 620.994 533.939 626.61 536.224 632.766C538.51 638.922 539.497 645.484 539.124 652.039M292.861 602.99C285.974 606.521 280.106 611.754 275.813 618.193C271.52 624.632 268.947 632.063 268.336 639.777L292.861 602.99ZM342.94 616.27C338.377 620.993 334.84 626.609 332.553 632.765C330.265 638.92 329.276 645.483 329.648 652.039L342.94 616.27Z" stroke="white" stroke-width="2" stroke-linecap="round" stroke-linejoin="round"/>
<path d="M378.697 345.483C385.47 345.483 390.96 331.758 390.96 314.827C390.96 297.897 385.47 284.172 378.697 284.172C371.925 284.172 366.435 297.897 366.435 314.827C366.435 331.758 371.925 345.483 378.697 345.483Z" fill="white"/>
<path d="M476.795 345.483C483.567 345.483 489.057 331.758 489.057 314.827C489.057 297.897 483.567 284.172 476.795 284.172C470.023 284.172 464.533 297.897 464.533 314.827C464.533 331.758 470.023 345.483 476.795 345.483Z" fill="white"/>
<path d="M579.002 599.949C579.002 599.949 600.08 614.922 595.31 630.556L579.002 599.949ZM245.824 521.949C245.824 521.949 184.513 570.998 147.726 485.162C110.939 399.327 159.988 399.327 159.988 399.327C159.988 399.327 209.037 399.327 209.037 423.851C209.037 448.376 188.608 485.162 241.753 503.556L245.824 521.949ZM144.807 384.759C144.807 384.759 42.8959 283.694 187.689 188.269C187.689 188.269 243.139 162.101 269.919 190.145C97.9902 259.831 318.919 369.382 144.807 384.759Z" stroke="white" stroke-width="2" stroke-linecap="round" stroke-linejoin="round"/>
<path d="M211.93 298.752C227.549 292.45 241.507 282.636 252.723 270.071C263.938 257.505 272.108 242.526 276.601 226.294C290.381 241.429 298.955 260.578 301.066 280.937C303.178 301.296 298.717 321.797 288.336 339.438C277.346 356.702 261.951 370.723 243.738 380.056C225.525 389.388 205.153 393.696 184.72 392.533C178.306 392.587 171.984 391.004 166.352 387.935L211.93 298.752ZM599.859 503.556C653.004 485.162 632.562 448.376 632.562 423.851C632.562 399.327 681.612 399.327 681.612 399.327C681.612 399.327 730.661 399.327 693.874 485.162C657.087 570.998 595.776 521.949 595.776 521.949L599.859 503.556ZM571.693 190.145C598.473 162.101 653.923 188.269 653.923 188.269C798.716 283.706 696.804 384.759 696.804 384.759C522.693 369.382 743.622 259.831 571.693 190.145V190.145Z" stroke="white" stroke-width="2" stroke-linecap="round" stroke-linejoin="round"/>
<path d="M629.682 298.752C614.063 292.45 600.105 282.636 588.889 270.071C577.674 257.505 569.504 242.526 565.011 226.294C551.231 241.429 542.657 260.578 540.546 280.937C538.434 301.296 542.895 321.797 553.276 339.438C564.266 356.702 579.661 370.723 597.874 380.056C616.087 389.388 636.459 393.696 656.892 392.533C663.306 392.587 669.628 391.004 675.261 387.935" stroke="white" stroke-width="2" stroke-linecap="round" stroke-linejoin="round"/>
</svg>
