<svg width="37" height="37" viewBox="0 0 37 37" fill="none" xmlns="http://www.w3.org/2000/svg">
<path d="M36.1957 0H20.913C20.4707 0 20.1087 0.361957 20.1087 0.804348V16.087C20.1087 16.5293 20.4707 16.8913 20.913 16.8913H36.1957C36.638 16.8913 37 16.5293 37 16.087V0.804348C37 0.361957 36.638 0 36.1957 0ZM36.1957 20.1087H20.913C20.4707 20.1087 20.1087 20.4707 20.1087 20.913V36.1957C20.1087 36.638 20.4707 37 20.913 37H36.1957C36.638 37 37 36.638 37 36.1957V20.913C37 20.4707 36.638 20.1087 36.1957 20.1087ZM16.087 0H0.804348C0.361957 0 0 0.361957 0 0.804348V16.087C0 16.5293 0.361957 16.8913 0.804348 16.8913H16.087C16.5293 16.8913 16.8913 16.5293 16.8913 16.087V0.804348C16.8913 0.361957 16.5293 0 16.087 0ZM16.087 20.1087H0.804348C0.361957 20.1087 0 20.4707 0 20.913V36.1957C0 36.638 0.361957 37 0.804348 37H16.087C16.5293 37 16.8913 36.638 16.8913 36.1957V20.913C16.8913 20.4707 16.5293 20.1087 16.087 20.1087Z" fill="white"/>
</svg>
