<svg width="38" height="37" viewBox="0 0 38 37" fill="none" xmlns="http://www.w3.org/2000/svg">
<path fill-rule="evenodd" clip-rule="evenodd" d="M19 0C8.5025 0 0 8.48815 0 18.9679C0 27.3612 5.43875 34.4505 12.9913 36.9638C13.9412 37.1297 14.2975 36.5607 14.2975 36.0628C14.2975 35.6123 14.2738 34.1186 14.2738 32.53C9.5 33.4073 8.265 31.3682 7.885 30.3013C7.67125 29.7559 6.745 28.0725 5.9375 27.6221C5.2725 27.2664 4.3225 26.3891 5.91375 26.3654C7.41 26.3417 8.47875 27.7406 8.835 28.3096C10.545 31.1785 13.2762 30.3724 14.3687 29.8745C14.535 28.6416 15.0338 27.8117 15.58 27.3375C11.3525 26.8633 6.935 25.2274 6.935 17.9721C6.935 15.9094 7.67125 14.2022 8.8825 12.8745C8.6925 12.4003 8.0275 10.4561 9.0725 7.84798C9.0725 7.84798 10.6637 7.35008 14.2975 9.7922C15.8175 9.36542 17.4325 9.15203 19.0475 9.15203C20.6625 9.15203 22.2775 9.36542 23.7975 9.7922C27.4312 7.32637 29.0225 7.84798 29.0225 7.84798C30.0675 10.4561 29.4025 12.4003 29.2125 12.8745C30.4238 14.2022 31.16 15.8856 31.16 17.9721C31.16 25.2511 26.7188 26.8633 22.4913 27.3375C23.18 27.9303 23.7738 29.0684 23.7738 30.8466C23.7738 33.3836 23.75 35.4226 23.75 36.0628C23.75 36.5607 24.1063 37.1534 25.0562 36.9638C28.828 35.6925 32.1055 33.2724 34.4275 30.0442C36.7494 26.816 37.9989 22.9422 38 18.9679C38 8.48815 29.4975 0 19 0Z" fill="black"/>
</svg>
